Simulation
nRows=20
nColumns=15
endheader
time  TH_x TH_y TH_z SC_y  SC_z  SC_x  AC_y  AC_z  AC_x  GH_y  GH_z  GH_yy  EL_x  PS_y
0.0  0.000000  0.000000  0.000000  -40.97484877243665  6.293857566463187  5.290427962726946  45.06410716394625  -3.621613817349496  -0.9986513817300697  14.876897747687169  5.1320512853072735  9.565253000173822  22.598284440824088  120.000000
0.05745  0.000000  0.000000  0.000000  -40.642394384646394  5.155787463638372  3.5375618661963957  45.065467807505776  -2.485014736510915  -0.6665200823919982  4.928466282534157  7.411027615645154  19.098777634594466  22.034433643993058  120.000000
0.1149  0.000000  0.000000  0.000000  -40.3325990896351  3.8680458220200795  1.7634212704936212  45.13165379189911  -1.5755481728068004  -0.32315032492423573  0.2243712313319842  9.634471087110917  23.36705065893252  21.641027644036317  120.000000
0.17235  0.000000  0.000000  0.000000  -40.08642820425832  2.5692150097953164  0.029292882873029096  45.2581899016788  -0.8417677958979013  0.06597065499153233  -2.2487220910424566  11.778225073656236  25.33102154490648  21.499321098757207  120.000000
0.2298  0.000000  0.000000  0.000000  -39.9304811510971  1.3620589590799266  -1.595906563751612  45.44769381041809  -0.19980803588166376  0.5274232935014667  -3.6058423057113234  13.911494720021004  26.0634984613173  21.61727631686942  120.000000
0.28725  0.000000  0.000000  0.000000  -39.880311150692755  0.3447198137650316  -3.062322641761037  45.69733456820406  0.4291748420373532  1.0778375305406682  -4.363911159986863  16.12461305319723  26.04913450979352  21.938996967978337  120.000000
0.3447  0.000000  0.000000  0.000000  -39.961303807538414  -0.41483697939918746  -4.344255483465857  45.9980370108791  1.1068042040180486  1.7162845173566337  -4.78835959110707  18.508025002220702  25.529903138926553  22.366435015473666  120.000000
0.40215  0.000000  0.000000  0.000000  -40.21376072923963  -0.8836987874448555  -5.425132222622719  46.33873995158759  1.8554539793043934  2.4266828146932897  -5.0137489015435746  21.131615485564115  24.628331993791008  22.788347942473006  120.000000
0.4596  0.000000  0.000000  0.000000  -40.68045913333353  -1.0531795757323539  -6.281990450728835  46.71269390139691  2.649166457128188  3.1857974921797694  -5.1110407915249025  24.026783402844277  23.419440319057195  23.110410132045004  120.000000
0.51705  0.000000  0.000000  0.000000  -41.38741953619329  -0.9233818352731749  -6.913416103652057  47.12424485104288  3.4515080558949913  3.995481870992069  -5.113315968479431  27.175657180363018  21.954722306077603  23.27318755896226  120.000000
0.5745  0.000000  0.000000  0.000000  -42.329731693598006  -0.5035435266989471  -7.333496588506144  47.58565333613988  4.2459832982056005  4.882988186317197  -5.03784507662328  30.51244533520033  20.277470976259472  23.258820199906374  120.000000
0.63195  0.000000  0.000000  0.000000  -43.46775930052158  0.19640131252064147  -7.531270187311678  48.11772351540994  5.036225016195694  5.865569432837241  -4.898712671622613  33.927144615061984  18.422614152236335  23.081701614688924  120.000000
0.6894  0.000000  0.000000  0.000000  -44.7249483476541  1.1554333254976608  -7.468567846213839  48.73498496240823  5.854881386479416  6.94199569150368  -4.731027320846624  37.265922550147366  16.42961731015687  22.770008888763865  120.000000
0.74685  0.000000  0.000000  0.000000  -46.008143519724776  2.3276584821668056  -7.08736651410795  49.431751103927745  6.751303725185303  8.093816432182823  -4.58642803703573  40.34301683070476  14.338152277691885  22.356286805750603  120.000000
0.8043  0.000000  0.000000  0.000000  -47.21884382025628  3.655614471944969  -6.330684551923866  50.1906825116519  7.769206135282077  9.279805344397728  -4.50619325914817  42.98264488469895  12.173153169172467  21.873327727178367  120.000000
0.86175  0.000000  0.000000  0.000000  -48.29337993651278  5.077967002972622  -5.155386020086345  50.97810766387841  8.920302190639491  10.451586388185737  -4.503623627684226  45.07218661589989  9.948788662932113  21.354578381013894  120.000000
0.9192  0.000000  0.000000  0.000000  -49.223936215301144  6.537291025166505  -3.546121875393798  51.74607806087399  10.174772657348178  11.572748284800062  -4.562166049868656  46.58916120546182  7.688037666313031  20.83301828921518  120.000000
0.97665  0.000000  0.000000  0.000000  -50.04434523070962  7.9861609197167756  -1.518700958177689  52.44402515829914  11.471974951715127  12.623146089965553  -4.649219496188388  47.59623484592953  5.444108258235076  20.333470995878173  120.000000
1.0341  0.000000  0.000000  0.000000  -50.80884148450184  9.382106376125124  0.884948825966089  53.02847021908011  12.739869108876148  13.595196454853681  -4.734185229150737  48.207781679604686  3.3139908198948502  19.870365629786743  120.000000
1.09155  0.000000  0.000000  0.000000  -51.56254028078324  10.674689673394587  3.5968493043988854  53.47090146242018  13.908714567284486  14.488610309971623  -4.802998218800376  48.55294030520936  1.4274197182571982  19.44375687769483  120.000000
